<svg width="50" height="50" viewBox="0 0 50 50" fill="none" xmlns="http://www.w3.org/2000/svg">
<g id="Artboard-3">
<g id="cloud sun">
<path id="Vector" d="M6.25 20.3135H4.6875C4.2731 20.3135 3.87567 20.4781 3.58265 20.7711C3.28962 21.0641 3.125 21.4616 3.125 21.876C3.125 22.2904 3.28962 22.6878 3.58265 22.9808C3.87567 23.2739 4.2731 23.4385 4.6875 23.4385H6.25C6.6644 23.4385 7.06183 23.2739 7.35485 22.9808C7.64788 22.6878 7.8125 22.2904 7.8125 21.876C7.8125 21.4616 7.64788 21.0641 7.35485 20.7711C7.06183 20.4781 6.6644 20.3135 6.25 20.3135Z" fill="#FFC806"/>
<path id="Vector_2" d="M29.7972 10.8277C29.5042 10.5347 29.1068 10.3701 28.6924 10.3701C28.2781 10.3701 27.8807 10.5347 27.5877 10.8277L26.483 11.9324C26.3333 12.0764 26.2138 12.2488 26.1316 12.4396C26.0493 12.6303 26.006 12.8356 26.004 13.0433C26.002 13.251 26.0414 13.4571 26.12 13.6493C26.1986 13.8416 26.3148 14.0163 26.4617 14.1632C26.6086 14.3101 26.7833 14.4262 26.9756 14.5047C27.1679 14.5833 27.3739 14.6227 27.5817 14.6207C27.7894 14.6186 27.9946 14.5752 28.1853 14.4929C28.3761 14.4106 28.5485 14.2911 28.6925 14.1414L29.7972 13.0367C30.09 12.7437 30.2545 12.3464 30.2545 11.9322C30.2545 11.518 30.09 11.1207 29.7972 10.8277Z" fill="#FFCC48"/>
<path id="Vector_3" d="M18.75 10.9385C19.1644 10.9385 19.5618 10.7739 19.8549 10.4808C20.1479 10.1878 20.3125 9.79038 20.3125 9.37598V7.81348C20.3125 7.39908 20.1479 7.00165 19.8549 6.70862C19.5618 6.4156 19.1644 6.25098 18.75 6.25098C18.3356 6.25098 17.9382 6.4156 17.6451 6.70862C17.3521 7.00165 17.1875 7.39908 17.1875 7.81348V9.37598C17.1875 9.79038 17.3521 10.1878 17.6451 10.4808C17.9382 10.7739 18.3356 10.9385 18.75 10.9385Z" fill="#FFCC48"/>
<path id="Vector_4" d="M11.0155 14.1415C11.3085 13.8485 11.4731 13.4511 11.4731 13.0367C11.4731 12.6224 11.3085 12.225 11.0155 11.932L9.91084 10.8273C9.61652 10.5405 9.22105 10.3811 8.81008 10.3838C8.39912 10.3865 8.00576 10.551 7.71522 10.8417C7.42468 11.1323 7.26036 11.5258 7.25784 11.9367C7.25533 12.3477 7.41482 12.7431 7.70178 13.0373L8.80647 14.142C9.09953 14.4347 9.49685 14.5992 9.9111 14.5991C10.3253 14.599 10.7226 14.4344 11.0155 14.1415Z" fill="#FFC806"/>
<path id="Vector_5" d="M18.7515 12.501C16.4283 12.5018 14.1881 13.3651 12.4652 14.9237C10.7422 16.4822 9.65928 18.6248 9.42622 20.9364C9.19316 23.2479 9.8266 25.5636 11.2037 27.4347C12.5809 29.3057 14.6036 30.5989 16.88 31.0635C17.1048 31.1089 17.3368 31.1042 17.5596 31.0498C17.7824 30.9955 17.9905 30.8927 18.1692 30.7489C18.3478 30.605 18.4926 30.4236 18.5932 30.2176C18.6939 30.0115 18.7479 29.7858 18.7515 29.5564C18.7971 27.5338 19.6209 25.6066 21.0515 24.1759C22.4821 22.7453 24.4093 21.9215 26.432 21.876C26.6613 21.8723 26.887 21.8183 27.0931 21.7176C27.2991 21.617 27.4805 21.4722 27.6243 21.2936C27.7682 21.1149 27.8709 20.9068 27.9252 20.684C27.9796 20.4612 27.9843 20.2292 27.9389 20.0044C27.5044 17.8877 26.3534 15.9855 24.6798 14.6186C23.0061 13.2518 20.9124 12.5038 18.7515 12.501Z" fill="#FFCC48"/>
<path id="Vector_6" d="M19.3752 26.626C18.9752 27.5543 18.7628 28.5527 18.7502 29.5635C18.7467 29.7917 18.6931 30.0163 18.5932 30.2215C18.4933 30.4267 18.3495 30.6074 18.1721 30.751C17.8914 30.972 17.545 31.093 17.1877 31.0947C17.0829 31.0921 16.9785 31.0816 16.8752 31.0635C14.7339 30.6267 12.8125 29.4555 11.4432 27.7523C10.0739 26.0491 9.34273 23.921 9.37609 21.7359C9.40945 19.5508 10.2053 17.446 11.6259 15.7854C13.0466 14.1248 15.0028 13.0128 17.1565 12.6416C17.3191 17.3765 18.0643 22.0733 19.3752 26.626Z" fill="#FFC806"/>
<path id="Vector_7" d="M37.4996 25.0012C37.1585 25.0012 36.8178 25.0203 36.4788 25.0583C35.4761 22.9142 33.8053 21.153 31.7169 20.0389C29.6285 18.9248 27.2351 18.5179 24.8959 18.8792C22.5566 19.2405 20.3976 20.3506 18.7426 22.0428C17.0877 23.7351 16.026 25.9183 15.7169 28.2651C13.8067 28.6302 12.1014 29.6946 10.9343 31.2502C9.7672 32.8059 9.22228 34.7409 9.40608 36.677C9.58988 38.6131 10.4892 40.411 11.9282 41.7193C13.3671 43.0275 15.2423 43.752 17.1871 43.7512H37.4996C39.986 43.7512 42.3706 42.7634 44.1287 41.0053C45.8869 39.2471 46.8746 36.8626 46.8746 34.3762C46.8746 31.8898 45.8869 29.5052 44.1287 27.747C42.3706 25.9889 39.986 25.0012 37.4996 25.0012Z" fill="#9BBDFF"/>
<path id="Vector_8" d="M40.625 29.6888C40.625 30.1032 40.4604 30.5006 40.1674 30.7936C39.8743 31.0866 39.4769 31.2513 39.0625 31.2513C38.6481 31.2513 38.2507 31.0866 37.9576 30.7936C37.6646 30.5006 37.5 30.1032 37.5 29.6888C37.497 28.5495 37.3232 27.4171 36.9844 26.3294C36.8435 25.8978 36.6765 25.4751 36.4844 25.0638C36.821 25.0191 37.1604 24.9982 37.5 25.0013C38.3237 24.9986 39.1438 25.109 39.9375 25.3294C39.9375 25.345 39.9531 25.3763 39.9531 25.3919C40.3981 26.7808 40.6248 28.2303 40.625 29.6888Z" fill="#51A1FF"/>
<path id="Vector_9" d="M20.0625 28.6732C19.1474 28.3105 18.1718 28.1249 17.1875 28.1263C16.6945 28.1259 16.2027 28.173 15.7188 28.2669C15.8571 27.1438 16.1791 26.0512 16.6719 25.0325C16.8425 25.0066 17.015 24.9961 17.1875 25.0013C17.7789 25.0009 18.3693 25.0479 18.9531 25.1419C19.2812 26.3294 19.6406 27.5013 20.0625 28.6732Z" fill="#9BBDFF"/>
<path id="Vector_10" d="M24.1406 29.47C24.0146 29.6334 23.8576 29.7702 23.6786 29.8728C23.4995 29.9754 23.3021 30.0416 23.0974 30.0677C22.8928 30.0938 22.685 30.0793 22.4859 30.025C22.2869 29.9707 22.1005 29.8777 21.9375 29.7513C21.0661 29.0759 20.0607 28.5941 18.9883 28.3381C17.9159 28.0821 16.8013 28.0579 15.7188 28.2669C15.8571 27.1438 16.1791 26.0512 16.6719 25.0325C16.8425 25.0066 17.015 24.9961 17.1875 25.0013C19.6047 24.9896 21.9553 25.7933 23.8594 27.2825C24.1853 27.5363 24.3978 27.9086 24.4505 28.3184C24.5032 28.7281 24.3918 29.1421 24.1406 29.47Z" fill="#51A1FF"/>
</g>
</g>
</svg>
