<svg width="41" height="40" viewBox="0 0 41 40" fill="none" xmlns="http://www.w3.org/2000/svg">
<g id="Clouds">
<g id="cloud">
<path id="Vector" d="M27.9091 15.1183C27.6362 15.1183 27.3636 15.1336 27.0924 15.1641C26.2903 13.4488 24.9536 12.0398 23.2829 11.1485C21.6121 10.2573 19.6975 9.93172 17.8261 10.2208C15.9547 10.5098 14.2274 11.3978 12.9035 12.7516C11.5795 14.1055 10.7302 15.8521 10.4829 17.7294C8.95477 18.0215 7.59048 18.8731 6.65681 20.1176C5.72313 21.3621 5.2872 22.9101 5.43424 24.459C5.58128 26.0078 6.30072 27.4462 7.4519 28.4928C8.60308 29.5394 10.1032 30.119 11.6591 30.1183H27.9091C29.8982 30.1183 31.8058 29.3281 33.2124 27.9216C34.6189 26.5151 35.4091 24.6074 35.4091 22.6183C35.4091 20.6292 34.6189 18.7215 33.2124 17.315C31.8058 15.9085 29.8982 15.1183 27.9091 15.1183Z" fill="#9BBDFF"/>
<path id="Vector_2" d="M30.4102 18.8684C30.4102 19.1999 30.2785 19.5179 30.044 19.7523C29.8096 19.9867 29.4917 20.1184 29.1602 20.1184C28.8286 20.1184 28.5107 19.9867 28.2763 19.7523C28.0419 19.5179 27.9102 19.1999 27.9102 18.8684C27.9078 17.957 27.7687 17.0511 27.4977 16.1809C27.3849 15.8356 27.2514 15.4975 27.0977 15.1684C27.367 15.1327 27.6385 15.116 27.9102 15.1184C28.5691 15.1162 29.2252 15.2045 29.8602 15.3809C29.8602 15.3934 29.8727 15.4184 29.8727 15.4309C30.2286 16.542 30.41 17.7016 30.4102 18.8684Z" fill="#51A1FF"/>
<path id="Vector_3" d="M13.4219 17.8682C12.8489 17.703 12.2557 17.6189 11.6594 17.6182C11.265 17.6179 10.8715 17.6556 10.4844 17.7307C10.595 16.8323 10.8526 15.9581 11.2469 15.1432C11.3833 15.1224 11.5214 15.1141 11.6594 15.1182C12.0232 15.1179 12.3866 15.1429 12.7469 15.1932C12.9247 16.0961 13.15 16.989 13.4219 17.8682Z" fill="#9BBDFF"/>
<path id="Vector_4" d="M17.2219 18.6932C17.121 18.8239 16.9954 18.9334 16.8522 19.0154C16.709 19.0975 16.551 19.1505 16.3873 19.1714C16.2236 19.1923 16.0574 19.1807 15.8981 19.1372C15.7389 19.0938 15.5898 19.0194 15.4594 18.9182C14.7623 18.3779 13.9579 17.9924 13.1 17.7877C12.2421 17.5829 11.3504 17.5635 10.4844 17.7307C10.595 16.8323 10.8526 15.9581 11.2469 15.1432C11.3833 15.1224 11.5214 15.1141 11.6594 15.1182C13.5932 15.1089 15.4736 15.7519 16.9969 16.9432C17.2577 17.1462 17.4276 17.4441 17.4698 17.7719C17.5119 18.0997 17.4228 18.4308 17.2219 18.6932Z" fill="#51A1FF"/>
</g>
</g>
</svg>
