<svg width="17" height="16" viewBox="0 0 17 16" fill="none" xmlns="http://www.w3.org/2000/svg">
<g id="Cloud" clip-path="url(#clip0_600_13969)">
<path id="Vector" d="M16.1654 9.33354C16.1658 8.88575 16.0758 8.44249 15.9008 8.03032C15.7258 7.61815 15.4694 7.24555 15.1469 6.93485C14.8244 6.62416 14.4426 6.38176 14.0242 6.22219C13.6058 6.06261 13.1595 5.98915 12.712 6.0062C12.2708 5.06922 11.5299 4.30597 10.6065 3.83702C9.68301 3.36808 8.62965 3.22017 7.61278 3.41666C6.5959 3.61316 5.67347 4.14285 4.99122 4.92207C4.30897 5.70129 3.90579 6.68561 3.84536 7.71954C3.48139 7.6433 3.10499 7.6492 2.74358 7.73681C2.38217 7.82441 2.04485 7.99153 1.75618 8.22597C1.46752 8.46041 1.23478 8.75629 1.07491 9.09205C0.915036 9.42781 0.832064 9.79499 0.832031 10.1669C0.832031 12.7069 3.4987 12.6669 3.4987 12.6669H13.1654C13.1654 12.6669 16.1654 12.2762 16.1654 9.33354Z" stroke="#F6F6F6" stroke-linecap="round" stroke-linejoin="round"/>
</g>
<defs>
<clipPath id="clip0_600_13969">
<rect width="16" height="16" fill="white" transform="translate(0.5)"/>
</clipPath>
</defs>
</svg>
