<svg width="12" height="12" viewBox="0 0 12 12" fill="none" xmlns="http://www.w3.org/2000/svg">
<g id="Frame" clip-path="url(#clip0_540_3714)">
<path id="Vector" d="M6.20378 0.605144C6.1824 0.570054 6.15236 0.541052 6.11653 0.520928C6.08071 0.500804 6.04031 0.490234 5.99922 0.490234C5.95813 0.490234 5.91773 0.500804 5.88191 0.520928C5.84608 0.541052 5.81604 0.570054 5.79466 0.605144C5.03343 1.85262 2.40625 6.25569 2.40625 7.94103C2.40625 8.89394 2.78479 9.80783 3.45861 10.4816C4.13242 11.1555 5.0463 11.534 5.99922 11.534C6.95213 11.534 7.86602 11.1555 8.53983 10.4816C9.21364 9.80783 9.59219 8.89394 9.59219 7.94103C9.59219 6.25569 6.96501 1.85214 6.20378 0.605144Z" stroke="white" stroke-linecap="round" stroke-linejoin="round"/>
</g>
<defs>
<clipPath id="clip0_540_3714">
<rect width="12" height="12" fill="white"/>
</clipPath>
</defs>
</svg>
