<svg width="12" height="12" viewBox="0 0 12 12" fill="none" xmlns="http://www.w3.org/2000/svg">
<g id="Light" clip-path="url(#clip0_600_3802)">
<path id="Vector" d="M4.80078 0.491211V0.970273" stroke="white" stroke-linecap="round" stroke-linejoin="round"/>
<path id="Vector_2" d="M1.44922 1.44922L1.92828 1.92828" stroke="white" stroke-linecap="round" stroke-linejoin="round"/>
<path id="Vector_3" d="M8.15484 1.44922L7.67578 1.92828" stroke="white" stroke-linecap="round" stroke-linejoin="round"/>
<path id="Vector_4" d="M0.492188 4.80273H0.97125" stroke="white" stroke-linecap="round" stroke-linejoin="round"/>
<path id="Vector_5" d="M10.6713 7.99565C10.7715 7.7633 10.8085 7.50863 10.7787 7.25737C10.7489 7.00612 10.6533 6.76719 10.5015 6.56474C10.3497 6.36228 10.1472 6.20348 9.91443 6.10438C9.68163 6.00528 9.4268 5.96939 9.17568 6.00035C8.9605 5.44625 8.56428 4.98119 8.05139 4.68073C7.53851 4.38027 6.9391 4.26206 6.35054 4.34531C5.76198 4.42855 5.21887 4.70837 4.80943 5.13928C4.39999 5.5702 4.14829 6.1269 4.09522 6.71895C3.48702 6.78526 2.92702 7.08111 2.52947 7.54616C2.13191 8.0112 1.92676 8.6104 1.95584 9.22152C1.98493 9.83264 2.24608 10.4096 2.68601 10.8348C3.12593 11.26 3.7115 11.5013 4.32326 11.5096H9.59295C10.0033 11.5076 10.4023 11.3745 10.7317 11.1297C11.0611 10.885 11.3037 10.5414 11.4241 10.1491C11.5445 9.75679 11.5364 9.33626 11.401 8.94888C11.2656 8.56149 11.0099 8.22751 10.6713 7.99565Z" stroke="white" stroke-linecap="round" stroke-linejoin="round"/>
<path id="Vector_6" d="M7.29519 3.36812C6.97937 2.81948 6.49126 2.39044 5.90663 2.14761C5.32201 1.90478 4.67357 1.86174 4.06198 2.02518C3.45039 2.18862 2.90986 2.54938 2.5243 3.05148C2.13874 3.55357 1.92972 4.1689 1.92969 4.80195C1.92974 5.30611 2.064 5.80117 2.31869 6.23627" stroke="white" stroke-linecap="round" stroke-linejoin="round"/>
</g>
<defs>
<clipPath id="clip0_600_3802">
<rect width="12" height="12" fill="white"/>
</clipPath>
</defs>
</svg>
