<svg width="44" height="48" viewBox="0 0 44 48" fill="none" xmlns="http://www.w3.org/2000/svg">
<g id="Halfmoon">
<path id="Vector" d="M42.7147 38.7685L42.7148 38.7685C42.8759 38.5816 42.9734 38.3507 42.9953 38.108C43.0172 37.8654 42.9624 37.6216 42.8377 37.4101C42.713 37.1986 42.524 37.0294 42.2959 36.9274C42.07 36.8265 41.8178 36.7968 41.5739 36.8429C38.4952 37.5045 35.3066 37.4775 32.2397 36.7636C29.1692 36.049 26.2976 34.6638 23.8343 32.7085C21.3709 30.7532 19.3777 28.2769 18.0007 25.4597C16.6236 22.6425 15.8974 19.5556 15.8754 16.4242L15.8754 16.4242L15.8754 16.4178C15.8722 11.4755 17.6563 6.69722 20.9019 2.95042L20.9025 2.94971C21.0654 2.76209 21.1639 2.52965 21.1857 2.28535C21.2075 2.0411 21.1517 1.79567 21.0251 1.58339C20.8985 1.37099 20.7069 1.20187 20.4763 1.10125L20.8737 0.190129L20.4763 1.10125C20.2456 1.00064 19.9884 0.974082 19.7413 1.02574C14.4677 2.13303 9.7355 4.99351 6.32772 9.13133C2.922 13.2666 1.04306 18.4299 1.00004 23.7665C1.05373 28.5429 2.57464 33.1903 5.36111 37.0888C8.14943 40.9899 12.0725 43.9556 16.6074 45.5885C21.1423 47.2214 26.0721 47.4433 30.7377 46.2242C35.4033 45.0051 39.5814 42.4036 42.7147 38.7685Z" stroke="white" stroke-width="2"/>
</g>
</svg>
