<svg width="24" height="24" viewBox="0 0 24 24" fill="none" xmlns="http://www.w3.org/2000/svg">
<g id="Frame" clip-path="url(#clip0_200_12390)">
<path id="Vector" d="M22.6494 9.31747L12.5891 1.4436C12.4206 1.31182 12.2128 1.24023 11.9989 1.24023C11.785 1.24023 11.5772 1.31182 11.4087 1.4436L1.34839 9.31747C1.23388 9.40701 1.14125 9.52144 1.0775 9.65208C1.01376 9.78272 0.980577 9.92615 0.980469 10.0715V22.0605C0.980469 22.3146 1.08141 22.5583 1.2611 22.738C1.44078 22.9177 1.68448 23.0187 1.93859 23.0187H8.16641V17.2699C8.16641 16.2535 8.57019 15.2787 9.28892 14.5599C10.0077 13.8412 10.9825 13.4374 11.9989 13.4374C13.0153 13.4374 13.9902 13.8412 14.7089 14.5599C15.4276 15.2787 15.8314 16.2535 15.8314 17.2699V23.0187H22.0592C22.3133 23.0187 22.557 22.9177 22.7367 22.738C22.9164 22.5583 23.0173 22.3146 23.0173 22.0605V10.0715C23.0172 9.92615 22.9841 9.78272 22.9203 9.65208C22.8566 9.52144 22.7639 9.40701 22.6494 9.31747Z" stroke="white" stroke-width="2" stroke-linecap="round" stroke-linejoin="round"/>
</g>
<defs>
<clipPath id="clip0_200_12390">
<rect width="24" height="24" fill="white"/>
</clipPath>
</defs>
</svg>
