<svg width="12" height="12" viewBox="0 0 12 12" fill="none" xmlns="http://www.w3.org/2000/svg">
<g id="Frame" clip-path="url(#clip0_600_3745)">
<path id="Vector" d="M7.16081 4.8606C7.22955 4.70177 7.25514 4.52759 7.23492 4.35571C7.21465 4.18382 7.14941 4.02033 7.04564 3.8818C6.94192 3.74327 6.80338 3.63461 6.64414 3.56683C6.4849 3.49906 6.31057 3.47457 6.13882 3.49585C5.99122 3.11809 5.72041 2.80122 5.37026 2.59658C5.0201 2.39194 4.6111 2.31152 4.20953 2.36835C3.80796 2.42517 3.43734 2.61592 3.15771 2.90968C2.87808 3.20344 2.70582 3.583 2.66884 3.98689C2.24837 4.02247 1.85806 4.21968 1.57996 4.53706C1.30187 4.85444 1.15764 5.26726 1.17761 5.68879C1.19757 6.11027 1.38017 6.50765 1.68702 6.79729C1.99387 7.08698 2.40107 7.24641 2.82303 7.2421H6.42391C6.70321 7.24368 6.97565 7.15544 7.20091 6.99031C7.42621 6.82522 7.5924 6.59206 7.67499 6.32527C7.75758 6.05843 7.75221 5.77215 7.65961 5.50866C7.567 5.24513 7.39215 5.0184 7.16081 4.8619V4.8606Z" stroke="white" stroke-linecap="round" stroke-linejoin="round"/>
<path id="Vector_2" d="M5.96094 1.67318C6.03764 1.52781 6.13436 1.39266 6.24924 1.27198C6.52887 0.978223 6.89952 0.787479 7.30107 0.730653C7.70262 0.673829 8.11164 0.754252 8.46179 0.958888C8.81193 1.16353 9.08275 1.4804 9.23035 1.85816C9.40209 1.83688 9.57642 1.86137 9.73566 1.92914C9.89495 1.99692 10.0334 2.10558 10.1372 2.24411C10.2409 2.38264 10.3062 2.54613 10.3264 2.71802C10.3467 2.8899 10.3211 3.06408 10.2523 3.2229V3.22421C10.4837 3.38071 10.6586 3.60745 10.7511 3.87096C10.8437 4.13446 10.8491 4.42076 10.7665 4.68756C10.6839 4.95436 10.5177 5.18753 10.2924 5.35262C10.0672 5.5177 9.79478 5.606 9.51549 5.60441H8.91421" stroke="white" stroke-linecap="round" stroke-linejoin="round"/>
<path id="Vector_3" d="M0.710938 8.53613C0.834373 8.53613 0.956304 8.55209 1.0681 8.58289C1.17989 8.61364 1.27881 8.65853 1.35787 8.7143L2.1699 9.28769C2.24896 9.34345 2.34788 9.38834 2.45968 9.41914C2.57147 9.4499 2.6934 9.46585 2.81683 9.46585C2.94027 9.46585 3.06221 9.4499 3.17399 9.41914C3.28579 9.38834 3.38471 9.34345 3.46377 9.28769L4.2758 8.7143C4.35486 8.65853 4.45378 8.61364 4.56557 8.58289C4.67737 8.55209 4.7993 8.53613 4.92274 8.53613C5.04615 8.53613 5.16812 8.55209 5.27989 8.58289C5.3917 8.61364 5.49063 8.65853 5.56967 8.7143L6.38168 9.28769C6.46077 9.34345 6.5597 9.38834 6.67147 9.41914C6.78328 9.4499 6.9052 9.46585 7.02866 9.46585C7.15206 9.46585 7.27398 9.4499 7.3858 9.41914C7.49761 9.38834 7.59649 9.34345 7.67558 9.28769L8.48759 8.7143C8.56664 8.65853 8.66556 8.61364 8.77738 8.58289C8.88914 8.55209 9.01111 8.53613 9.13452 8.53613C9.25797 8.53613 9.37989 8.55209 9.49171 8.58289C9.60347 8.61364 9.7024 8.65853 9.78144 8.7143L10.5935 9.28769C10.6725 9.34345 10.7715 9.38834 10.8833 9.41914C10.9951 9.4499 11.117 9.46585 11.2404 9.46585" stroke="white" stroke-linecap="round" stroke-linejoin="round"/>
<path id="Vector_4" d="M0.710938 10.3701C0.834373 10.3701 0.956304 10.3861 1.0681 10.4169C1.17989 10.4477 1.27881 10.4925 1.35787 10.5483L2.1699 11.1217C2.24896 11.1775 2.34788 11.2223 2.45968 11.2531C2.57147 11.2839 2.6934 11.2999 2.81683 11.2999C2.94027 11.2999 3.06221 11.2839 3.17399 11.2531C3.28579 11.2223 3.38471 11.1775 3.46377 11.1217L4.2758 10.5483C4.35486 10.4925 4.45378 10.4477 4.56557 10.4169C4.67737 10.3861 4.7993 10.3701 4.92274 10.3701C5.04615 10.3701 5.16812 10.3861 5.27989 10.4169C5.3917 10.4477 5.49063 10.4925 5.56967 10.5483L6.38168 11.1217C6.46077 11.1775 6.5597 11.2223 6.67147 11.2531C6.78328 11.2839 6.9052 11.2999 7.02866 11.2999C7.15206 11.2999 7.27398 11.2839 7.3858 11.2531C7.49761 11.2223 7.59649 11.1775 7.67558 11.1217L8.48759 10.5483C8.56664 10.4925 8.66556 10.4477 8.77738 10.4169C8.88914 10.3861 9.01111 10.3701 9.13452 10.3701C9.25797 10.3701 9.37989 10.3861 9.49171 10.4169C9.60347 10.4477 9.7024 10.4925 9.78144 10.5483L10.5935 11.1217C10.6725 11.1775 10.7715 11.2223 10.8833 11.2531C10.9951 11.2839 11.117 11.2999 11.2404 11.2999" stroke="white" stroke-linecap="round" stroke-linejoin="round"/>
</g>
<defs>
<clipPath id="clip0_600_3745">
<rect width="12" height="12" fill="white"/>
</clipPath>
</defs>
</svg>
