<svg width="12" height="12" viewBox="0 0 12 12" fill="none" xmlns="http://www.w3.org/2000/svg">
<g id="Frame" clip-path="url(#clip0_600_3776)">
<path id="Vector" d="M9.07184 0.529057C8.29929 0.438035 7.51623 0.511646 6.77418 0.745046C6.03214 0.978446 5.34793 1.36634 4.76659 1.88321C4.18525 2.40008 3.71995 3.0342 3.40133 3.74383C3.0827 4.45347 2.91797 5.22254 2.91797 6.00043C2.91797 6.77832 3.0827 7.54739 3.40133 8.25703C3.71995 8.96666 4.18525 9.60078 4.76659 10.1176C5.34793 10.6345 6.03214 11.0224 6.77418 11.2558C7.51623 11.4892 8.29929 11.5628 9.07184 11.4718C4.71333 9.36153 4.72243 2.63358 9.07184 0.529057Z" stroke="white" stroke-linecap="round" stroke-linejoin="round"/>
</g>
<defs>
<clipPath id="clip0_600_3776">
<rect width="12" height="12" fill="white"/>
</clipPath>
</defs>
</svg>
