<svg width="40" height="40" viewBox="0 0 40 40" fill="none" xmlns="http://www.w3.org/2000/svg">
<g id="Notification">
<g id="Frame">
<path id="Vector" d="M9.75822 28.1244L19.1593 10.9567C19.2419 10.806 19.3635 10.6803 19.5113 10.5928C19.6591 10.5052 19.8278 10.459 19.9996 10.459C20.1714 10.459 20.3401 10.5052 20.4879 10.5928C20.6358 10.6803 20.7573 10.806 20.8399 10.9567L30.241 28.1244C30.3208 28.2703 30.3613 28.4345 30.3585 28.6007C30.3556 28.767 30.3095 28.9297 30.2248 29.0728C30.14 29.2158 30.0194 29.3344 29.8749 29.4167C29.7305 29.4991 29.567 29.5424 29.4007 29.5424H10.5985C10.4322 29.5424 10.2688 29.4991 10.1243 29.4167C9.97981 29.3344 9.85925 29.2158 9.77447 29.0728C9.6897 28.9297 9.64362 28.767 9.64077 28.6007C9.63792 28.4345 9.67839 28.2703 9.75822 28.1244Z" stroke="white" stroke-width="2" stroke-linecap="round" stroke-linejoin="round"/>
<path id="Vector_2" d="M20 17.5654V23.7932" stroke="white" stroke-width="2" stroke-linecap="round" stroke-linejoin="round"/>
<path id="Vector_3" d="M20 25.9492C20.0635 25.9492 20.1245 25.9745 20.1694 26.0194C20.2143 26.0643 20.2395 26.1252 20.2395 26.1888" stroke="white" stroke-width="0.67" stroke-linecap="round" stroke-linejoin="round"/>
<path id="Vector_4" d="M19.7617 26.1888C19.7617 26.1252 19.787 26.0643 19.8319 26.0194C19.8768 25.9745 19.9377 25.9492 20.0013 25.9492" stroke="white" stroke-width="0.67" stroke-linecap="round" stroke-linejoin="round"/>
<path id="Vector_5" d="M20.0013 26.428C19.9377 26.428 19.8768 26.4028 19.8319 26.3579C19.787 26.3129 19.7617 26.252 19.7617 26.1885" stroke="white" stroke-width="0.67" stroke-linecap="round" stroke-linejoin="round"/>
<path id="Vector_6" d="M20.2395 26.1885C20.2395 26.252 20.2143 26.3129 20.1694 26.3579C20.1245 26.4028 20.0635 26.428 20 26.428" stroke="white" stroke-width="2" stroke-linecap="round" stroke-linejoin="round"/>
</g>
</g>
</svg>
