<svg width="12" height="12" viewBox="0 0 12 12" fill="none" xmlns="http://www.w3.org/2000/svg">
<g id="Frame">
<path id="Vector" d="M3.12443 4.87402V5.54473C3.12443 5.78426 3.07653 5.97589 2.98072 6.21542C2.74118 6.74239 2.83699 7.36517 3.17234 7.89214C3.41187 8.27539 3.45977 8.80236 3.26815 9.18561C3.17234 9.37723 3.12443 9.56886 3.12443 9.76048" stroke="white" stroke-miterlimit="10" stroke-linecap="round" stroke-linejoin="round"/>
<path id="Vector_2" d="M2.16797 5.83217L3.12609 4.87402L4.08422 5.83217" stroke="white" stroke-miterlimit="10" stroke-linecap="round" stroke-linejoin="round"/>
<path id="Vector_3" d="M6.14396 4.87402V5.54473C6.14396 5.78426 6.09606 5.97589 6.00025 6.21542C5.76071 6.74239 5.85653 7.36517 6.19187 7.89214C6.4314 8.27539 6.47931 8.80236 6.28768 9.18561C6.19187 9.37723 6.14396 9.56886 6.14396 9.76048" stroke="white" stroke-miterlimit="10" stroke-linecap="round" stroke-linejoin="round"/>
<path id="Vector_4" d="M5.1875 5.83217L6.14563 4.87402L7.10375 5.83217" stroke="white" stroke-miterlimit="10" stroke-linecap="round" stroke-linejoin="round"/>
<path id="Vector_5" d="M9.11271 4.87402V5.54473C9.11271 5.78426 9.06481 5.97589 8.969 6.21542C8.72946 6.74239 8.82528 7.36517 9.16062 7.89214C9.40015 8.27539 9.44806 8.80236 9.25643 9.18561C9.16062 9.37723 9.11271 9.56886 9.11271 9.76048" stroke="white" stroke-miterlimit="10" stroke-linecap="round" stroke-linejoin="round"/>
<path id="Vector_6" d="M8.15625 5.83217L9.11438 4.87402L10.0725 5.83217" stroke="white" stroke-miterlimit="10" stroke-linecap="round" stroke-linejoin="round"/>
<path id="Vector_7" d="M11.3883 2.23926H0.609375V7.50896H11.3883V2.23926Z" stroke="white" stroke-miterlimit="10" stroke-linecap="round" stroke-linejoin="round"/>
</g>
</svg>
