<svg width="12" height="12" viewBox="0 0 12 12" fill="none" xmlns="http://www.w3.org/2000/svg">
<g id="Frame" clip-path="url(#clip0_600_3756)">
<path id="Vector" d="M8.03484 8.63477V10.7905C8.03484 10.9811 7.95914 11.1639 7.82437 11.2987C7.68961 11.4334 7.50683 11.5091 7.31625 11.5091C7.12567 11.5091 6.94289 11.4334 6.80813 11.2987C6.67337 11.1639 6.59766 10.9811 6.59766 10.7905V8.63477" stroke="white" stroke-width="0.67" stroke-linecap="round" stroke-linejoin="round"/>
<path id="Vector_2" d="M10.9098 8.63477V9.35336C10.9098 10.1308 10.6577 10.8872 10.1913 11.5091C9.7248 10.8872 9.47266 10.1308 9.47266 9.35336V8.63477" stroke="white" stroke-width="0.67" stroke-linecap="round" stroke-linejoin="round"/>
<path id="Vector_3" d="M3.24609 4.56273C3.24609 5.07096 3.44798 5.55836 3.80735 5.91773C4.16672 6.27709 4.65412 6.47898 5.16234 6.47898C5.67056 6.47898 6.15797 6.27709 6.51734 5.91773C6.8767 5.55836 7.07859 5.07096 7.07859 4.56273C7.07859 4.31109 7.02903 4.06191 6.93273 3.82942C6.83643 3.59693 6.69528 3.38568 6.51734 3.20774C6.3394 3.0298 6.12815 2.88865 5.89566 2.79235C5.66317 2.69605 5.41399 2.64648 5.16234 2.64648C4.9107 2.64648 4.66152 2.69605 4.42903 2.79235C4.19654 2.88865 3.98529 3.0298 3.80735 3.20774C3.62941 3.38568 3.48826 3.59693 3.39196 3.82942C3.29566 4.06191 3.24609 4.31109 3.24609 4.56273Z" stroke="white" stroke-linecap="round" stroke-linejoin="round"/>
<path id="Vector_4" d="M5.16016 0.491211V1.44934" stroke="white" stroke-linecap="round" stroke-linejoin="round"/>
<path id="Vector_5" d="M9.23547 4.32324H8.27734" stroke="white" stroke-linecap="round" stroke-linejoin="round"/>
<path id="Vector_6" d="M5.16016 8.63488V7.67676" stroke="white" stroke-linecap="round" stroke-linejoin="round"/>
<path id="Vector_7" d="M1.08984 4.32324H2.04797" stroke="white" stroke-linecap="round" stroke-linejoin="round"/>
<path id="Vector_8" d="M2.28125 1.68359L2.95864 2.36099" stroke="white" stroke-linecap="round" stroke-linejoin="round"/>
<path id="Vector_9" d="M7.87271 1.51465L7.19531 2.19204" stroke="white" stroke-linecap="round" stroke-linejoin="round"/>
<path id="Vector_10" d="M8.04068 7.44204L7.36328 6.76465" stroke="white" stroke-linecap="round" stroke-linejoin="round"/>
<path id="Vector_11" d="M2.11328 7.27212L2.79068 6.59473" stroke="white" stroke-linecap="round" stroke-linejoin="round"/>
<path id="Vector_12" d="M8.03484 8.63477V10.7905C8.03484 10.9811 7.95914 11.1639 7.82437 11.2987C7.68961 11.4334 7.50683 11.5091 7.31625 11.5091C7.12567 11.5091 6.94289 11.4334 6.80813 11.2987C6.67337 11.1639 6.59766 10.9811 6.59766 10.7905V8.63477" stroke="white" stroke-linecap="round" stroke-linejoin="round"/>
<path id="Vector_13" d="M10.9098 8.63477V9.35336C10.9098 10.1308 10.6577 10.8872 10.1913 11.5091C9.7248 10.8872 9.47266 10.1308 9.47266 9.35336V8.63477" stroke="white" stroke-linecap="round" stroke-linejoin="round"/>
</g>
<defs>
<clipPath id="clip0_600_3756">
<rect width="12" height="12" fill="white"/>
</clipPath>
</defs>
</svg>
