<svg width="12" height="12" viewBox="0 0 12 12" fill="none" xmlns="http://www.w3.org/2000/svg">
<g id="Frame">
<g id="Group">
<path id="Vector" d="M4.32422 5.99996C4.32422 6.22015 4.36759 6.43818 4.45185 6.64161C4.53611 6.84504 4.65962 7.02988 4.81532 7.18558C4.97102 7.34128 5.15586 7.46478 5.35928 7.54905C5.56271 7.63331 5.78075 7.67668 6.00094 7.67668C6.22113 7.67668 6.43916 7.63331 6.64259 7.54905C6.84602 7.46478 7.03086 7.34128 7.18656 7.18558C7.34225 7.02988 7.46576 6.84504 7.55002 6.64161C7.63429 6.43818 7.67766 6.22015 7.67766 5.99996C7.67766 5.77977 7.63429 5.56174 7.55002 5.35831C7.46576 5.15488 7.34225 4.97004 7.18656 4.81434C7.03086 4.65864 6.84602 4.53514 6.64259 4.45087C6.43916 4.36661 6.22113 4.32324 6.00094 4.32324C5.78075 4.32324 5.56271 4.36661 5.35928 4.45087C5.15586 4.53514 4.97102 4.65864 4.81532 4.81434C4.65962 4.97004 4.53611 5.15488 4.45185 5.35831C4.36759 5.56174 4.32422 5.77977 4.32422 5.99996Z" stroke="white" stroke-width="0.67" stroke-linecap="round" stroke-linejoin="round"/>
<path id="Vector_2" d="M11.4522 5.84156C10.8917 5.2092 8.6641 2.88574 6.00051 2.88574C3.33692 2.88574 1.10928 5.2092 0.548779 5.84156C0.512188 5.88612 0.492188 5.94199 0.492188 5.99965C0.492187 6.05731 0.512188 6.11318 0.548779 6.15774C1.10928 6.7901 3.33692 9.11356 6.00051 9.11356C8.6641 9.11356 10.8917 6.7901 11.4522 6.15774C11.4888 6.11318 11.5088 6.05731 11.5088 5.99965C11.5088 5.94199 11.4888 5.88612 11.4522 5.84156Z" stroke="white" stroke-width="0.67" stroke-linecap="round" stroke-linejoin="round"/>
</g>
</g>
</svg>
