<svg width="17" height="16" viewBox="0 0 17 16" fill="none" xmlns="http://www.w3.org/2000/svg">
<g id="Weather Cloud Rain Thunder" clip-path="url(#clip0_600_13973)">
<path id="Vector" d="M8.83203 15.6663L12.1654 12.333" stroke="white" stroke-linecap="round" stroke-linejoin="round"/>
<path id="Vector_2" d="M2.16797 15.6663L5.5013 12.333" stroke="white" stroke-linecap="round" stroke-linejoin="round"/>
<path id="Vector_3" d="M14.0011 5.46282C14.1411 5.1393 14.1932 4.78451 14.152 4.4344C14.1108 4.08429 13.9777 3.75129 13.7664 3.46914C13.555 3.18699 13.2728 2.96572 12.9484 2.82775C12.624 2.68978 12.2689 2.64001 11.9191 2.68348C11.6198 1.91204 11.0685 1.26449 10.3546 0.846086C9.64076 0.427685 8.80637 0.263038 7.98708 0.378909C7.16779 0.49478 6.41178 0.884357 5.84195 1.48431C5.27211 2.08426 4.92195 2.85932 4.8484 3.68348C3.99869 3.76869 3.21409 4.17676 2.65646 4.82353C2.09882 5.47029 1.81067 6.3064 1.85146 7.1594C1.89225 8.01239 2.25887 8.8172 2.87567 9.4078C3.49248 9.9984 4.31244 10.3297 5.1664 10.3335H12.4997C13.0698 10.3335 13.6249 10.1509 14.0836 9.8123C14.5422 9.47374 14.8803 8.99711 15.0482 8.45232C15.2162 7.90753 15.2051 7.32326 15.0166 6.78524C14.8282 6.24721 14.4722 5.78374 14.0011 5.46282Z" stroke="white" stroke-linecap="round" stroke-linejoin="round"/>
<path id="Vector_4" d="M8.16667 12.333L6.5 13.9997H8.16667L6.5 15.6663" stroke="white" stroke-linecap="round" stroke-linejoin="round"/>
</g>
<defs>
<clipPath id="clip0_600_13973">
<rect width="16" height="16" fill="white" transform="translate(0.5)"/>
</clipPath>
</defs>
</svg>
