<svg width="12" height="12" viewBox="0 0 12 12" fill="none" xmlns="http://www.w3.org/2000/svg">
<g id="Weather Wind Flow 7" clip-path="url(#clip0_540_3729)">
<path id="Vector" d="M0.375 4.9248H10.375C10.7065 4.9248 11.0245 4.79311 11.2589 4.55869C11.4933 4.32427 11.625 4.00633 11.625 3.6748C11.625 3.40959 11.5196 3.15523 11.3321 2.9677C11.1446 2.78016 10.8902 2.6748 10.625 2.6748C10.4128 2.6748 10.2093 2.75909 10.0593 2.90912C9.90929 3.05915 9.825 3.26263 9.825 3.4748" stroke="white" stroke-linecap="round" stroke-linejoin="round"/>
<path id="Vector_2" d="M0.375 2.67201H6.5795C6.77682 2.67201 6.96606 2.59363 7.10559 2.4541C7.24511 2.31457 7.3235 2.12533 7.3235 1.92801C7.3235 1.77021 7.26081 1.61887 7.14923 1.50728C7.03764 1.3957 6.8863 1.33301 6.7285 1.33301C6.62846 1.33264 6.5309 1.36417 6.45 1.42301" stroke="white" stroke-linecap="round" stroke-linejoin="round"/>
<path id="Vector_3" d="M0.375 7.1748H6.364C6.87865 7.1748 7.37223 7.37925 7.73614 7.74316C8.10006 8.10708 8.3045 8.60065 8.3045 9.1153C8.3045 9.31906 8.26433 9.52082 8.18627 9.70904C8.10822 9.89726 7.99383 10.0682 7.84963 10.2122C7.70544 10.3562 7.53427 10.4703 7.34593 10.548C7.15758 10.6258 6.95576 10.6656 6.752 10.6653C6.42269 10.6653 6.10686 10.5345 5.87395 10.3017C5.64104 10.0689 5.51013 9.75312 5.51 9.4238" stroke="white" stroke-linecap="round" stroke-linejoin="round"/>
</g>
<defs>
<clipPath id="clip0_540_3729">
<rect width="12" height="12" fill="white"/>
</clipPath>
</defs>
</svg>
