<svg width="64" height="64" viewBox="0 0 64 64" fill="none" xmlns="http://www.w3.org/2000/svg">
<g id="Frame">
<path id="Vector" d="M19.2742 27.1944C19.0239 27.3152 18.7411 27.3511 18.4685 27.2966C18.196 27.2422 17.9486 27.1003 17.764 26.8926C17.5794 26.6848 17.4675 26.4225 17.4455 26.1455C17.4234 25.8684 17.4922 25.5917 17.6416 25.3574L30.9122 3.80594C31.0265 3.61994 31.1866 3.46633 31.3771 3.35977C31.5677 3.25321 31.7824 3.19727 32.0007 3.19727C32.219 3.19727 32.4337 3.25321 32.6242 3.35977C32.8147 3.46633 32.9748 3.61994 33.0891 3.80594L46.3598 25.3574C46.5036 25.5917 46.568 25.8663 46.5434 26.1402C46.5188 26.4141 46.4064 26.6727 46.223 26.8777C46.0396 27.0826 45.7949 27.2229 45.5254 27.2776C45.2559 27.3324 44.976 27.2987 44.7271 27.1816L32.0007 21.2004L19.2742 27.1944Z" stroke="white" stroke-width="2" stroke-linecap="round" stroke-linejoin="round"/>
<path id="Vector_2" d="M16.6719 45.4726C16.6719 49.5383 18.287 53.4376 21.1619 56.3125C24.0369 59.1875 27.9361 60.8026 32.0019 60.8026C36.0676 60.8026 39.9669 59.1875 42.8418 56.3125C45.7168 53.4376 47.3319 49.5383 47.3319 45.4726C47.3319 41.4068 45.7168 37.5076 42.8418 34.6326C39.9669 31.7577 36.0676 30.1426 32.0019 30.1426C27.9361 30.1426 24.0369 31.7577 21.1619 34.6326C18.287 37.5076 16.6719 41.4068 16.6719 45.4726Z" stroke="white" stroke-width="2" stroke-linecap="round" stroke-linejoin="round"/>
<path id="Vector_3" d="M28.168 53.1376V37.8076L35.833 53.1376V37.8076" stroke="white" stroke-width="2" stroke-linecap="round" stroke-linejoin="round"/>
</g>
</svg>
